<?xml version="1.0" encoding="UTF-8" standalone="no"?>
<!-- Created with Inkscape (http://www.inkscape.org/) -->

<svg
   width="348"
   height="348"
   viewBox="0 0 92.074997 92.074997"
   version="1.1"
   id="svg5"
   inkscape:version="1.1 (c68e22c387, 2021-05-23)"
   sodipodi:docname="Flag.svg"
   xmlns:inkscape="http://www.inkscape.org/namespaces/inkscape"
   xmlns:sodipodi="http://sodipodi.sourceforge.net/DTD/sodipodi-0.dtd"
   xmlns="http://www.w3.org/2000/svg"
   xmlns:svg="http://www.w3.org/2000/svg">
  <sodipodi:namedview
     id="namedview7"
     pagecolor="#262626"
     bordercolor="#666666"
     borderopacity="1.0"
     inkscape:pageshadow="2"
     inkscape:pageopacity="0"
     inkscape:pagecheckerboard="0"
     inkscape:document-units="mm"
     showgrid="false"
     units="px"
     inkscape:zoom="1.7351529"
     inkscape:cx="195.37183"
     inkscape:cy="140.33345"
     inkscape:window-width="1489"
     inkscape:window-height="1008"
     inkscape:window-x="422"
     inkscape:window-y="0"
     inkscape:window-maximized="0"
     inkscape:current-layer="layer1" />
  <defs
     id="defs2">
    <marker
       style="overflow:visible"
       id="marker2660"
       refX="0.0"
       refY="0.0"
       orient="auto"
       inkscape:stockid="DotL"
       inkscape:isstock="true">
      <path
         transform="scale(0.8) translate(7.4, 1)"
         style="fill-rule:evenodd;fill:context-stroke;stroke:context-stroke;stroke-width:1.0pt"
         d="M -2.5,-1.0 C -2.5,1.7600000 -4.7400000,4.0 -7.5,4.0 C -10.260000,4.0 -12.5,1.7600000 -12.5,-1.0 C -12.5,-3.7600000 -10.260000,-6.0 -7.5,-6.0 C -4.7400000,-6.0 -2.5,-3.7600000 -2.5,-1.0 z "
         id="path2658" />
    </marker>
    <marker
       style="overflow:visible"
       id="DotL"
       refX="0.0"
       refY="0.0"
       orient="auto"
       inkscape:stockid="DotL"
       inkscape:isstock="true">
      <path
         transform="scale(0.8) translate(7.4, 1)"
         style="fill-rule:evenodd;fill:context-stroke;stroke:context-stroke;stroke-width:1.0pt"
         d="M -2.5,-1.0 C -2.5,1.7600000 -4.7400000,4.0 -7.5,4.0 C -10.260000,4.0 -12.5,1.7600000 -12.5,-1.0 C -12.5,-3.7600000 -10.260000,-6.0 -7.5,-6.0 C -4.7400000,-6.0 -2.5,-3.7600000 -2.5,-1.0 z "
         id="path2451" />
    </marker>
  </defs>
  <g
     inkscape:label="Layer 1"
     inkscape:groupmode="layer"
     id="layer1">
    <rect
       style="fill:none;stroke:#000000;stroke-width:3;stroke-linecap:round;stroke-linejoin:round;stroke-miterlimit:4;stroke-dasharray:none;stop-color:#000000"
       id="rect6898"
       width="8.6195774"
       height="89.54644"
       x="10.645118"
       y="1.6810676" />
    <path
       style="fill:none;stroke:#000000;stroke-width:3;stroke-linecap:round;stroke-linejoin:round;stroke-miterlimit:4;stroke-dasharray:none;stop-color:#000000"
       d="m 19.264695,1.6810676 h 7.756827 7.756826 7.756827 c 2.493682,0.3912542 4.567855,1.4350786 6.081087,3.3514782 1.444473,1.6744735 1.731026,6.4188272 1.675739,9.8738672 v 13.225345 13.225345 c -0.5177,3.945237 1.586019,8.320566 -1.021792,11.917451 -3.107702,2.548888 -7.68177,2.411445 -10.13924,0.408717 -2.320821,-2.37589 -1.495028,-6.896592 -1.512252,-10.541708 4.123135,-0.03054 11.174237,-1.02113 12.644192,3.310607"
       id="path9342"
       sodipodi:nodetypes="cccccccccccc" />
    <path
       style="fill:none;stroke:#000000;stroke-width:3;stroke-linecap:round;stroke-linejoin:round;stroke-miterlimit:4;stroke-dasharray:none;stop-color:#000000"
       d="M 37.618716,43.141563 H 19.382945"
       id="path13526" />
    <path
       style="fill:none;stroke:#000000;stroke-width:3;stroke-linecap:round;stroke-linejoin:round;stroke-miterlimit:4;stroke-dasharray:none;stop-color:#000000"
       d="m 44.525374,55.656719 39.64588,0 V 14.943447 H 52.607035"
       id="path13994"
       sodipodi:nodetypes="cccc" />
    <path
       style="fill:#ffffff;stroke:#000000;stroke-width:6.53463;stroke-linecap:round;stroke-linejoin:round;stroke-miterlimit:4;stroke-dasharray:none;stop-color:#000000"
       d="M 46.105447,175.48886 V 12.390839 H 56.479172 66.852898 V 175.48886 338.58688 H 56.479172 46.105447 Z"
       id="path14325"
       transform="scale(0.26458333)" />
    <path
       style="fill:#ffffff;stroke:#000000;stroke-width:6.53463;stroke-linecap:round;stroke-linejoin:round;stroke-miterlimit:4;stroke-dasharray:none;stop-color:#000000"
       d="m 180.67572,159.56129 c -6.83809,-2.55717 -8.57306,-2.63525 -56.33509,-2.53522 l -45.385052,0.095 V 84.755977 12.390839 h 41.439692 41.4397 l 4.19945,1.420776 c 6.72272,2.274455 11.79586,6.245534 14.33354,11.219796 3.47753,6.816525 4.02154,17.469982 4.03378,78.993999 0.009,46.98743 -0.1716,56.54208 -1.06878,56.43857 -0.19358,-0.0224 -1.38934,-0.42854 -2.65724,-0.90269 z"
       id="path14364"
       transform="scale(0.26458333)" />
    <path
       style="fill:#ffffff;stroke:#000000;stroke-width:6.53463;stroke-linecap:round;stroke-linejoin:round;stroke-miterlimit:4;stroke-dasharray:none;stop-color:#000000"
       d="m 193.67718,199.98529 c 2.703,-5.54152 3.63036,-10.9395 3.16882,-18.44509 -0.19491,-3.16975 -0.48955,-31.40694 -0.65476,-62.7493 l -0.30037,-56.986119 1.32535,0.354996 c 0.72895,0.195248 26.9355,0.358538 58.23677,0.362866 l 56.91141,0.0079 v 70.887127 70.88712 h -60.39707 -60.39707 z"
       id="path14403"
       transform="scale(0.26458333)" />
    <path
       style="fill:#ffffff;stroke:#000000;stroke-width:6.53463;stroke-linecap:round;stroke-linejoin:round;stroke-miterlimit:4;stroke-dasharray:none;stop-color:#000000"
       d="m 159.49368,201.95012 c -1.18995,-0.28045 -3.48049,-1.17726 -5.09009,-1.99291 -2.43866,-1.23576 -3.1538,-1.98177 -4.28978,-4.47498 -2.31523,-5.08135 -3.17049,-14.14013 -2.20612,-23.36674 l 0.37026,-3.54245 8.99491,0.004 c 13.30098,0.006 20.20617,1.37076 24.05896,4.75355 3.00405,2.6376 3.83744,5.07001 3.7999,11.09085 -0.0358,5.73565 -1.54291,10.93489 -3.77171,13.01133 -1.6222,1.51131 -6.51531,3.80152 -9.68164,4.53148 -3.03142,0.69885 -9.18905,0.69153 -12.18469,-0.0145 z"
       id="path14442"
       transform="scale(0.26458333)" />
    <circle
       style="fill:#000000;stroke:#0000ff;stroke-width:1;stroke-linecap:round;stroke-linejoin:round;stroke-miterlimit:4;stroke-dasharray:none;stop-color:#000000"
       id="path14738"
       cx="33.089062"
       cy="24.854918"
       r="4.5745249" />
    <circle
       style="fill:#000000;stroke:#0000ff;stroke-width:1;stroke-linecap:round;stroke-linejoin:round;stroke-miterlimit:4;stroke-dasharray:none;stop-color:#000000"
       id="path14738-1"
       cx="67.855453"
       cy="32.631611"
       r="4.5745249" />
  </g>
</svg>
